<?xml version="1.0" encoding="UTF-8"?>
<svg id="Capa_1" data-name="Capa 1" xmlns="http://www.w3.org/2000/svg" width="499.96" height="499.96" viewBox="0 0 499.96 499.96">
  <rect width="499.96" height="499.96" style="fill: #ff6700;"/>
  <g>
    <path d="M30.59,325.51l25.04-151.07h55.26l9.63,58.91c.47,3.65,.93,8.35,1.37,14.09,.44,5.75,.86,11.88,1.27,18.4,.41,6.52,.71,12.81,.91,18.86,.2,6.05,.34,11.2,.41,15.46h-7.4c1.49-4.32,3.35-9.51,5.58-15.56,2.23-6.05,4.6-12.33,7.1-18.86,2.5-6.52,4.92-12.66,7.25-18.4,2.33-5.74,4.34-10.41,6.03-13.99l28.79-58.91h55.46l-25.04,151.07h-35.99l10.75-65.19c.61-3.45,1.42-7.81,2.43-13.08,1.01-5.27,2.11-11,3.29-17.19,1.18-6.18,2.38-12.38,3.6-18.6,1.22-6.22,2.26-12,3.14-17.34l2.64,.1c-2.37,5.88-4.87,12.01-7.5,18.4s-5.24,12.59-7.81,18.6c-2.57,6.02-5,11.54-7.3,16.58-2.3,5.04-4.22,9.24-5.78,12.62l-32.34,65.09h-29.81l-11.05-65.19c-.68-4.46-1.45-10.36-2.33-17.69-.88-7.33-1.72-15.27-2.53-23.83-.81-8.55-1.52-16.78-2.13-24.69l3.14,.1c-.81,5.41-1.67,11.22-2.59,17.44-.91,6.22-1.77,12.42-2.59,18.6-.81,6.18-1.59,11.9-2.33,17.13-.74,5.24-1.42,9.58-2.03,13.03l-10.75,65.09H30.59Z" style="fill: #e2e2e2;"/>
    <path d="M214.46,325.51l25.04-151.07h61.85c11.42,0,20.9,2.16,28.44,6.49,7.54,4.33,12.93,10.39,16.17,18.2,3.24,7.81,3.99,16.92,2.23,27.32-1.69,10.34-5.46,19.38-11.3,27.12-5.85,7.74-13.33,13.74-22.46,18-9.13,4.26-19.5,6.39-31.13,6.39h-38.93l4.77-28.69h33.36c5.48,0,10.24-.96,14.3-2.89s7.33-4.6,9.83-8.01c2.5-3.41,4.09-7.42,4.77-12.01,.81-4.6,.52-8.58-.86-11.96-1.39-3.38-3.79-6-7.2-7.86-3.41-1.86-7.86-2.79-13.33-2.79h-19.47l-20.18,121.77h-35.89Z" style="fill: #e2e2e2;"/>
    <path d="M395.3,327.64c-11.83,0-21.88-2.06-30.16-6.18-8.28-4.12-14.33-9.8-18.15-17.03-3.82-7.23-5.02-15.41-3.6-24.54h35.69c-.61,3.79-.14,7.1,1.42,9.94,1.55,2.84,3.97,5.04,7.25,6.59,3.28,1.56,7.15,2.33,11.61,2.33s8.53-.78,12.22-2.33c3.68-1.55,6.72-3.73,9.12-6.54,2.4-2.8,3.9-6.03,4.51-9.68,.61-3.72,.1-6.98-1.52-9.78-1.62-2.8-4.23-5-7.81-6.59-3.58-1.59-7.98-2.38-13.18-2.38h-14.5l4.16-25.55h14.5c4.6,0,8.77-.76,12.52-2.28s6.83-3.63,9.23-6.34c2.4-2.7,3.9-5.85,4.51-9.43,.54-3.51,.19-6.59-1.06-9.23-1.25-2.64-3.24-4.71-5.98-6.24-2.74-1.52-6.1-2.28-10.09-2.28-4.19,0-8.08,.76-11.66,2.28-3.58,1.52-6.56,3.65-8.92,6.39-2.37,2.74-3.89,5.97-4.56,9.68h-34.27c1.55-8.99,5.24-16.95,11.05-23.88,5.81-6.93,13.23-12.37,22.25-16.32s19.01-5.93,29.96-5.93,19.96,1.88,27.63,5.63c7.67,3.75,13.33,8.86,16.98,15.31,3.65,6.46,4.8,13.74,3.45,21.85-1.42,8.58-5.36,15.68-11.81,21.29-6.46,5.61-14.14,9.09-23.07,10.44l-.1,.81c7.5,.95,13.57,3.03,18.2,6.24,4.63,3.21,7.86,7.3,9.68,12.27,1.82,4.97,2.23,10.53,1.22,16.68-1.49,8.65-5.27,16.36-11.36,23.12-6.08,6.76-13.89,12.07-23.42,15.92-9.53,3.85-20.18,5.78-31.94,5.78Z" style="fill: #e2e2e2;"/>
  </g>
</svg>