<?xml version="1.0" encoding="UTF-8"?>
<svg id="Capa_1" data-name="Capa 1" xmlns="http://www.w3.org/2000/svg" width="500.16" height="500.16" viewBox="0 0 500.16 500.16">
  <rect width="500.16" height="500.16" style="fill: #0074ff;"/>
  <path d="M245.24,74.73c30.56,0,61.11,.13,91.67-.06,13.02-.08,25.49,2.34,37.46,7.16,33.05,13.29,53.75,37.56,61.26,72.22,7.82,36.1-.65,68.78-24.24,97.19-18.49,22.27-42.23,36.11-70.69,41.72-2.59,.51-5.21,.83-7.81,1.26-1.65,.28-1.83,.59-.95,2.01,2.83,4.55,5.71,9.07,8.58,13.6,17.96,28.39,35.93,56.77,53.87,85.16,.49,.77,1.55,1.6,.99,2.52-.52,.86-1.77,.44-2.7,.44-27.92,.02-55.83-.02-83.75,.07-2.63,0-4.16-.79-5.6-3.03-26.68-41.51-53.46-82.96-80.21-124.42-2.42-3.74-2.05-3.85-4.71-.16-36.5,50.69-73,101.38-109.51,152.07-.19,.26-.41,.5-.56,.78-.93,1.73-2.34,2.37-4.33,2.3-3.76-.13-7.52-.03-11.28-.03h-25.92c-.64,0-1.28,.01-1.92,0-2.34-.07-2.53-.26-2.01-2.55,2.3-10.14,4.63-20.27,6.95-30.4,21.02-91.82,42.05-183.63,63.07-275.45,2.93-12.78,5.85-25.57,8.77-38.35,.12-.55,.25-1.09,.39-1.63,.57-2.28,.65-2.34,3.1-2.39,.96-.02,1.92,0,2.88,0h97.19v-.03Z" style="fill: #fff;"/>
  <path d="M241.61,239.46h-44.86c-3.27,0-3.29-.04-1.84-2.94,15.23-30.47,30.49-60.92,45.66-91.42,1.05-2.12,2.33-2.78,4.62-2.77,17.27,.09,34.55,.08,51.82,.03,4.56,0,9.11-.12,13.64,.62,7.38,1.21,14.23,3.7,20.2,8.3,9.72,7.48,14.36,17.48,14.67,29.65,.39,14.96-4.6,27.76-15.35,38.21-10.54,10.23-22.96,16.95-37.49,19.57-2.92,.53-5.86,.76-8.83,.75-14.08-.02-28.15,0-42.23,0h-.01Z" style="fill: #0074ff;"/>
</svg>