<?xml version="1.0" encoding="UTF-8"?>
<svg id="Capa_1" data-name="Capa 1" xmlns="http://www.w3.org/2000/svg" width="500.31" height="500.33" viewBox="0 0 500.31 500.33">
  <rect y=".02" width="500.31" height="500.31" style="fill: #0f0d0e;"/>
  <path d="M108.63,187.02L258.58,.02h195.74s45.98-2.37,45.98,45.98v127.48l-151.96,210.77L143.16,250.17l-34.52-63.16" style="fill: #020202;"/>
  <g>
    <path d="M124.47,232.64c-17.07-1.11-25.67-7.23-28.32-19.76-2.12-10.01,3.07-20.75,12.5-25.87,9.41-5.12,20.99-3.3,28.63,4.51,8.28,8.47,8.91,19.6,1.73,32.12,17.17,14.3,34.36,28.6,51.91,43.23,16.08-32.3,31.94-64.14,47.99-96.36-7.89-4.9-12.71-11.83-12.61-21.66,.08-6.95,2.49-12.8,7.58-17.52,9.97-9.22,26.33-8.25,34.83,2.02,9.06,10.93,7.92,27.82-6.94,37.28,15.84,31.81,31.7,63.65,47.92,96.22,17.55-14.6,34.7-28.86,52.03-43.28-3.86-6.05-6.2-12.41-4.72-19.92,2.05-10.44,11.55-19.03,21.97-19.42,13.26-.5,22.71,7.17,25.01,18.13,3.65,17.35-8.01,30.07-23.64,29.99-3.2-.02-4.32,.87-5,4.15-5.86,28.58-12.05,57.11-17.96,85.68-.83,4.01-2.38,5.48-6.67,5.47-67.32-.14-134.64-.12-201.96-.04-3.15,0-4.57-.87-5.22-4.09-3.27-16.29-6.78-32.52-10.21-48.79-2.94-13.98-5.88-27.97-8.85-42.09h.02s-.01-.01-.01-.01Z" style="fill: #ffd317;"/>
    <path d="M250.51,350.2c33.94,0,67.88,.08,101.82-.1,4.23-.02,5.63,1.19,5.19,5.3-.69,6.61-.5,13.37-1.84,19.84-1.35,6.56-7.95,10.74-14.72,10.74H159.91c-8.61,0-15.94-6.82-16.4-15.54-.3-5.73-.11-11.49-.35-17.23-.11-2.44,.82-3.24,3.07-3.02,.67,.07,1.37,.01,2.05,.01h102.23Z" style="fill: #ffd317;"/>
  </g>
</svg>