<?xml version="1.0" encoding="UTF-8"?>
<svg id="Capa_1" data-name="Capa 1" xmlns="http://www.w3.org/2000/svg" width="500" height="499.95" viewBox="0 0 500 499.95">
  <rect x="80" y="29" width="358" height="431" style="fill: #e5e5e5;"/>
  <path d="M500,0H0V499.95H500V0ZM185.84,112.4c0-36.6,27.75-65.83,64.33-66.23,39.03-.4,65.54,29.99,66.09,63.73,.36,22.37,.07,44.76,.07,67.13v64.23c0,34.6-24.35,62.14-59.33,65.59-33.32,3.28-62.68-18.75-69.49-51-1.05-4.9-1.59-10-1.59-15.02-.12-42.81-.07-85.63-.07-128.44Zm194.86,167.75c-6.35,40.67-32.25,68.06-68.92,85.1-10.61,4.93-22.37,7.5-33.77,10.52-3.62,.95-5.24,1.78-5.16,5.81,.24,13.56,.1,27.15,.1,41.19h71.97v28.96H157.16v-28.63h72.06c0-11.9,.05-23.27,0-34.65-.07-11.35-.21-11.07-10.9-13.66-41.58-10.11-73.27-32.96-91.74-72.35-5.97-12.76-9.64-26.3-9.83-40.48-.26-18.47-.07-36.96-.07-55.9h38.67c0,13.87,.02,27.77,0,41.65-.02,14.47,3.26,28.13,10.4,40.74,14.9,26.27,37.89,41.55,67.23,46.19,34.2,5.4,64.37-3.78,88.53-29.41,14.9-15.8,22.3-34.82,22.35-56.59v-42.74h38.27c.26,.33,.69,.62,.69,.93-.48,24.46,1.64,49.33-2.09,73.3l-.02,.02Z" style="fill: #20ee66;"/>
</svg>