<?xml version="1.0" encoding="UTF-8"?>
<svg id="Capa_1" data-name="Capa 1" xmlns="http://www.w3.org/2000/svg" width="5676.64" height="808.82" viewBox="0 0 5676.64 808.82">
  <g>
    <path d="M0,0c269.61,0,539.21,0,808.82,0,0,269.61,0,539.21,0,808.82-269.61,0-539.21,0-808.82,0C0,539.21,0,269.61,0,0ZM266.17,136.58V669.83h94.51v-217.94h223.25v-77.33h-222.56V216.73h245.9v-80.16H266.17Z"/>
    <path d="M266.17,136.58h341.1v80.16h-245.9v157.82h222.56v77.33h-223.25v217.94h-94.51V136.58Z" style="fill: #e0e0e0;"/>
  </g>
  <g>
    <path d="M1033.88,612.65V189.93h281.71v72.63h-194.9v114.9h177.31v70.92h-177.31v164.26h-86.81Z" style="fill: #e0e0e0;"/>
    <path d="M1457.16,189.93v422.71h-84.54V189.93h84.54Z" style="fill: #e0e0e0;"/>
    <path d="M1616.03,618.6c-20.05,0-38.02-3.5-53.9-10.5-15.89-6.99-28.37-17.45-37.45-31.35-9.08-13.9-13.62-31.16-13.62-51.78,0-17.59,3.21-32.24,9.65-43.97,6.43-11.72,15.22-21.18,26.38-28.37,11.16-7.19,23.88-12.62,38.16-16.31,14.28-3.69,29.27-6.29,44.97-7.8,18.34-1.89,33.1-3.64,44.26-5.25,11.16-1.6,19.29-4.11,24.4-7.52,5.11-3.4,7.66-8.51,7.66-15.32v-1.42c0-8.7-1.94-16.12-5.82-22.27-3.88-6.14-9.5-10.87-16.88-14.18-7.38-3.31-16.36-4.96-26.95-4.96s-20.19,1.66-28.23,4.96c-8.04,3.31-14.57,7.76-19.58,13.33-5.01,5.58-8.56,11.87-10.64,18.87l-78.02-9.93c4.35-18.91,12.67-35.08,24.97-48.51,12.29-13.43,27.99-23.69,47.09-30.78,19.1-7.09,40.85-10.64,65.25-10.64,17.78,0,34.66,2.08,50.64,6.24,15.98,4.16,30.21,10.59,42.7,19.29,12.48,8.7,22.27,19.72,29.36,33.05,7.09,13.33,10.64,29.27,10.64,47.8v211.36h-80.85v-43.69h-2.55c-5.11,9.84-11.87,18.49-20.28,25.96-8.42,7.47-18.49,13.29-30.21,17.45-11.73,4.16-25.44,6.24-41.14,6.24Zm23.83-59.29c13.43,0,25.15-2.65,35.18-7.94,10.02-5.29,17.87-12.39,23.55-21.28,5.67-8.89,8.51-18.91,8.51-30.07v-33.19c-2.46,1.52-6.1,3.03-10.92,4.54-4.82,1.52-10.26,2.84-16.31,3.97-6.06,1.13-12.16,2.18-18.3,3.12-6.15,.95-11.77,1.8-16.88,2.55-10.21,1.52-19.29,3.93-27.24,7.23-7.94,3.31-14.09,7.76-18.44,13.33-4.35,5.58-6.53,12.53-6.53,20.85s2.03,14.66,6.1,20.14c4.06,5.49,9.65,9.65,16.74,12.48,7.09,2.84,15.27,4.26,24.54,4.26Z" style="fill: #e0e0e0;"/>
    <path d="M2001.3,618.89c-31.4,0-58.63-6.76-81.71-20.29-23.08-13.52-40.9-32.43-53.48-56.74-12.58-24.3-18.87-52.53-18.87-84.68s6.29-60.71,18.87-85.11c12.58-24.4,30.4-43.36,53.48-56.88,23.07-13.52,50.31-20.28,81.71-20.28,19.1,0,36.64,2.51,52.63,7.52,15.98,5.01,30.12,12.25,42.41,21.7,12.29,9.46,22.36,20.85,30.21,34.19,7.85,13.33,13.09,28.33,15.75,44.97l-79.44,11.35c-1.7-8.13-4.26-15.41-7.66-21.85-3.4-6.43-7.66-11.96-12.77-16.6-5.11-4.63-11.02-8.18-17.73-10.64-6.72-2.46-14.23-3.69-22.55-3.69-14.94,0-27.47,3.97-37.59,11.92-10.12,7.94-17.83,19.06-23.12,33.33-5.3,14.28-7.94,30.88-7.94,49.79s2.65,35.23,7.94,49.51c5.29,14.28,13,25.44,23.12,33.48,10.12,8.04,22.65,12.06,37.59,12.06,8.32,0,15.84-1.28,22.55-3.83,6.71-2.55,12.67-6.19,17.87-10.92,5.2-4.73,9.55-10.45,13.05-17.16,3.5-6.71,6-14.33,7.52-22.84l79.44,11.63c-2.46,16.84-7.62,31.96-15.46,45.39-7.85,13.43-17.92,25.01-30.21,34.75-12.3,9.74-26.53,17.16-42.7,22.27-16.17,5.11-33.81,7.66-52.91,7.66Z" style="fill: #e0e0e0;"/>
    <path d="M2421.46,189.93v422.71h-86.81V189.93h86.81Zm62.13,422.71h-109.51v-74.33h105.25c27.42,0,50.36-4.92,68.8-14.75,18.44-9.83,32.29-24.92,41.56-45.25,9.26-20.33,13.9-46.1,13.9-77.31s-4.64-56.64-13.9-76.88c-9.27-20.24-23.08-35.27-41.42-45.11-18.35-9.83-41.14-14.75-68.37-14.75h-107.81v-74.33h112.91c42.56,0,79.1,8.47,109.65,25.39,30.54,16.93,54.09,41.19,70.64,72.77,16.55,31.59,24.82,69.22,24.82,112.91s-8.28,81.61-24.82,113.2c-16.55,31.59-40.24,55.89-71.07,72.91-30.83,17.02-67.71,25.53-110.64,25.53Z" style="fill: #e0e0e0;"/>
    <path d="M2890.99,618.89c-31.59,0-58.97-6.76-82.13-20.29-23.17-13.52-41.04-32.43-53.62-56.74-12.58-24.3-18.87-52.53-18.87-84.68s6.29-60.95,18.87-85.25c12.58-24.3,30.45-43.22,53.62-56.74,23.17-13.52,50.54-20.28,82.13-20.28s58.68,6.76,81.85,20.28c23.17,13.52,41.04,32.44,53.62,56.74,12.58,24.31,18.87,52.72,18.87,85.25s-6.29,60.38-18.87,84.68c-12.58,24.31-30.45,43.22-53.62,56.74-23.17,13.52-50.45,20.29-81.85,20.29Zm0-66.95c14.75,0,27.19-4.06,37.31-12.2,10.12-8.13,17.82-19.34,23.12-33.62,5.29-14.28,7.94-30.68,7.94-49.22s-2.65-35.18-7.94-49.36c-5.3-14.18-13.01-25.34-23.12-33.48-10.12-8.13-22.55-12.2-37.31-12.2s-27.24,4.07-37.45,12.2c-10.21,8.13-17.92,19.29-23.12,33.48-5.2,14.18-7.8,30.64-7.8,49.36s2.6,34.94,7.8,49.22c5.2,14.28,12.86,25.49,22.98,33.62,10.12,8.13,22.65,12.2,37.59,12.2Z" style="fill: #e0e0e0;"/>
    <path d="M3159.93,612.65l-93.34-313.21h88.8l27.52,114.33c4.92,21.18,10.07,43.93,15.46,68.23,5.39,24.31,10.45,50.55,15.18,78.73h-10.21c5.11-27.8,10.54-53.9,16.31-78.3,5.77-24.4,11.3-47.28,16.6-68.65l28.94-114.33h77.73l28.09,114.33c5.11,21.38,10.54,44.21,16.31,68.51,5.77,24.31,11.21,50.45,16.31,78.44h-9.93c4.73-27.8,9.65-53.85,14.75-78.16,5.11-24.3,10.12-47.24,15.04-68.8l27.52-114.33h90.22l-93.9,313.21h-86.53l-34.9-121.71c-3.4-11.92-6.81-25.01-10.21-39.29-3.4-14.28-6.72-28.8-9.93-43.55-3.22-14.75-6.43-28.65-9.65-41.7h15.04c-3.22,13.05-6.43,26.95-9.65,41.7-3.22,14.75-6.48,29.27-9.79,43.55-3.31,14.28-6.76,27.38-10.35,39.29l-35.18,121.71h-86.24Z" style="fill: #e0e0e0;"/>
    <path d="M3668.04,432.78v179.87h-84.54V299.44h80.57l1.13,78.87h-7.09c8.51-26.48,21.32-47,38.44-61.56,17.11-14.56,39.1-21.84,65.96-21.84,21.75,0,40.75,4.73,57.02,14.18,16.26,9.46,28.84,23.08,37.73,40.85,8.89,17.78,13.33,39.15,13.33,64.12v198.59h-84.54v-183.55c0-19.86-5.01-35.32-15.04-46.39-10.03-11.06-24.02-16.6-41.99-16.6-11.92,0-22.46,2.6-31.63,7.8-9.18,5.2-16.36,12.72-21.56,22.55-5.2,9.84-7.8,21.94-7.8,36.31Z" style="fill: #e0e0e0;"/>
    <path d="M4024.94,189.93v422.71h-84.54V189.93h84.54Z" style="fill: #e0e0e0;"/>
    <path d="M4236.01,618.89c-31.59,0-58.97-6.76-82.13-20.29-23.17-13.52-41.04-32.43-53.62-56.74-12.58-24.3-18.87-52.53-18.87-84.68s6.29-60.95,18.87-85.25c12.58-24.3,30.45-43.22,53.62-56.74,23.17-13.52,50.54-20.28,82.13-20.28s58.68,6.76,81.85,20.28c23.17,13.52,41.04,32.44,53.62,56.74,12.58,24.31,18.87,52.72,18.87,85.25s-6.29,60.38-18.87,84.68c-12.58,24.31-30.45,43.22-53.62,56.74-23.17,13.52-50.45,20.29-81.85,20.29Zm0-66.95c14.75,0,27.19-4.06,37.31-12.2,10.12-8.13,17.82-19.34,23.12-33.62,5.29-14.28,7.94-30.68,7.94-49.22s-2.65-35.18-7.94-49.36c-5.3-14.18-13.01-25.34-23.12-33.48-10.12-8.13-22.55-12.2-37.31-12.2s-27.24,4.07-37.45,12.2c-10.21,8.13-17.92,19.29-23.12,33.48-5.2,14.18-7.8,30.64-7.8,49.36s2.6,34.94,7.8,49.22c5.2,14.28,12.86,25.49,22.98,33.62,10.12,8.13,22.65,12.2,37.59,12.2Z" style="fill: #e0e0e0;"/>
    <path d="M4541.27,618.6c-20.05,0-38.02-3.5-53.9-10.5-15.89-6.99-28.37-17.45-37.45-31.35s-13.62-31.16-13.62-51.78c0-17.59,3.21-32.24,9.65-43.97,6.43-11.72,15.22-21.18,26.38-28.37,11.16-7.19,23.88-12.62,38.16-16.31,14.28-3.69,29.27-6.29,44.97-7.8,18.34-1.89,33.1-3.64,44.26-5.25,11.16-1.6,19.29-4.11,24.4-7.52s7.66-8.51,7.66-15.32v-1.42c0-8.7-1.94-16.12-5.82-22.27-3.88-6.14-9.5-10.87-16.88-14.18-7.38-3.31-16.36-4.96-26.95-4.96s-20.19,1.66-28.23,4.96c-8.04,3.31-14.57,7.76-19.58,13.33-5.01,5.58-8.56,11.87-10.64,18.87l-78.02-9.93c4.35-18.91,12.67-35.08,24.97-48.51,12.29-13.43,27.99-23.69,47.09-30.78,19.1-7.09,40.85-10.64,65.25-10.64,17.78,0,34.66,2.08,50.64,6.24,15.98,4.16,30.21,10.59,42.7,19.29,12.48,8.7,22.27,19.72,29.36,33.05,7.09,13.33,10.64,29.27,10.64,47.8v211.36h-80.85v-43.69h-2.55c-5.11,9.84-11.87,18.49-20.29,25.96-8.42,7.47-18.49,13.29-30.21,17.45-11.73,4.16-25.44,6.24-41.14,6.24Zm23.83-59.29c13.43,0,25.15-2.65,35.18-7.94,10.02-5.29,17.87-12.39,23.55-21.28,5.67-8.89,8.51-18.91,8.51-30.07v-33.19c-2.46,1.52-6.1,3.03-10.92,4.54-4.82,1.52-10.26,2.84-16.31,3.97-6.06,1.13-12.15,2.18-18.3,3.12-6.15,.95-11.77,1.8-16.88,2.55-10.21,1.52-19.29,3.93-27.24,7.23-7.94,3.31-14.09,7.76-18.44,13.33-4.35,5.58-6.53,12.53-6.53,20.85s2.03,14.66,6.1,20.14c4.07,5.49,9.65,9.65,16.74,12.48,7.09,2.84,15.27,4.26,24.54,4.26Z" style="fill: #e0e0e0;"/>
    <path d="M4901.86,618.04c-24.78,0-46.91-6.34-66.39-19.01-19.48-12.67-34.85-31.02-46.1-55.04-11.25-24.02-16.88-53.24-16.88-87.66s5.77-64.45,17.31-88.37c11.54-23.92,27.05-42.08,46.53-54.47,19.48-12.39,41.14-18.58,64.97-18.58,16.83,0,31.11,2.74,42.84,8.23,11.72,5.49,21.42,12.44,29.08,20.85,7.66,8.42,13.66,17.16,18.02,26.24h2.27V189.93h84.54v422.71h-83.41v-49.65h-3.12c-4.35,9.08-10.45,17.83-18.3,26.24-7.85,8.42-17.59,15.32-29.22,20.71-11.63,5.39-25.68,8.09-42.13,8.09Zm24.97-68.09c14.56,0,26.95-3.92,37.17-11.77,10.21-7.85,18.06-18.77,23.55-32.77,5.48-13.99,8.23-30.45,8.23-49.36s-2.7-35.32-8.09-49.22c-5.39-13.9-13.24-24.68-23.55-32.34-10.31-7.66-22.74-11.49-37.31-11.49s-26.62,3.88-36.74,11.63c-10.12,7.76-17.78,18.63-22.98,32.63-5.2,14-7.8,30.26-7.8,48.8s2.6,35.13,7.8,49.22c5.2,14.09,12.86,25.06,22.98,32.91,10.12,7.85,22.36,11.77,36.74,11.77Z" style="fill: #e0e0e0;"/>
    <path d="M5289.68,618.89c-31.96,0-59.53-6.62-82.7-19.86-23.17-13.24-41.04-31.96-53.62-56.17-12.58-24.21-18.87-52.67-18.87-85.39s6.24-60.66,18.72-84.97c12.48-24.3,30.07-43.31,52.77-57.02,22.7-13.71,49.27-20.57,79.72-20.57,20.99,0,40.47,3.4,58.44,10.21,17.97,6.81,33.71,16.88,47.24,30.21,13.52,13.33,24.02,29.98,31.49,49.93,7.47,19.96,11.21,42.98,11.21,69.08v23.55h-265.83v-53.34h224.69l-39.43,13.9c0-16.26-2.55-30.36-7.66-42.27-5.11-11.91-12.62-21.14-22.55-27.66-9.93-6.53-22.18-9.79-36.74-9.79s-26.95,3.31-37.16,9.93c-10.21,6.62-18.01,15.7-23.41,27.24-5.39,11.54-8.09,24.78-8.09,39.72v37.45c0,17.59,3.02,32.53,9.08,44.83,6.05,12.3,14.61,21.61,25.68,27.94,11.06,6.34,23.97,9.5,38.72,9.5,10.02,0,19.15-1.46,27.38-4.4,8.23-2.93,15.22-7.19,20.99-12.77,5.77-5.58,10.16-12.43,13.19-20.57l76.88,11.06c-4.92,18.16-13.76,34-26.53,47.52-12.77,13.52-28.75,24.02-47.95,31.49-19.2,7.47-41.09,11.21-65.68,11.21Z" style="fill: #e0e0e0;"/>
    <path d="M5489.4,612.65V299.44h81.99v54.19h2.84c5.67-19.1,15.13-33.52,28.37-43.26,13.24-9.74,28.94-14.61,47.09-14.61,4.54,0,9.26,.19,14.18,.57,4.92,.38,9.17,.95,12.77,1.7v74.9c-3.6-1.13-8.94-2.03-16.03-2.7-7.09-.66-13.95-.99-20.57-.99-12.48,0-23.79,2.74-33.9,8.23-10.12,5.49-18.01,13.24-23.69,23.26-5.67,10.03-8.51,21.84-8.51,35.46v176.46h-84.54Z" style="fill: #e0e0e0;"/>
  </g>
</svg>