<?xml version="1.0" encoding="UTF-8"?>
<svg id="Capa_1" data-name="Capa 1" xmlns="http://www.w3.org/2000/svg" width="5320.46" height="808.82" viewBox="0 0 5320.46 808.82">
  <rect width="808.82" height="808.82" style="fill: #ff6700;"/>
  <g>
    <path d="M49.48,526.61l40.51-244.39h89.39l15.58,95.3c.76,5.91,1.5,13.51,2.21,22.8,.71,9.3,1.39,19.22,2.05,29.77,.66,10.55,1.15,20.72,1.48,30.51,.33,9.79,.55,18.12,.66,25.01h-11.97c2.4-7,5.41-15.39,9.02-25.18,3.61-9.79,7.44-19.96,11.48-30.51,4.04-10.55,7.96-20.47,11.73-29.77,3.77-9.29,7.02-16.84,9.76-22.64l46.58-95.3h89.72l-40.51,244.39h-58.23l17.39-105.47c.98-5.58,2.3-12.63,3.94-21.16,1.64-8.53,3.42-17.8,5.33-27.8,1.91-10.01,3.85-20.04,5.82-30.1,1.97-10.06,3.66-19.41,5.08-28.05l4.26,.16c-3.83,9.51-7.87,19.44-12.14,29.77s-8.48,20.37-12.63,30.1c-4.16,9.73-8.09,18.67-11.81,26.82-3.72,8.15-6.83,14.95-9.35,20.42l-52.32,105.3h-48.22l-17.88-105.47c-1.09-7.22-2.35-16.76-3.77-28.62-1.42-11.86-2.79-24.71-4.1-38.55-1.31-13.83-2.46-27.15-3.44-39.94l5.08,.16c-1.31,8.75-2.71,18.15-4.18,28.21-1.48,10.06-2.87,20.09-4.18,30.1-1.31,10.01-2.57,19.25-3.77,27.72-1.2,8.48-2.3,15.5-3.28,21.08l-17.39,105.3H49.48Z" style="fill: #e2e2e2;"/>
    <path d="M346.95,526.61l40.51-244.39h100.05c18.48,0,33.81,3.5,46.01,10.5,12.19,7,20.91,16.81,26.16,29.44,5.25,12.63,6.45,27.37,3.61,44.2-2.73,16.73-8.83,31.36-18.29,43.88-9.46,12.52-21.57,22.23-36.33,29.11-14.76,6.89-31.55,10.33-50.35,10.33h-62.98l7.71-46.42h53.96c8.86,0,16.57-1.56,23.13-4.67s11.86-7.44,15.91-12.96c4.04-5.52,6.61-12,7.71-19.44,1.31-7.43,.85-13.89-1.39-19.35-2.24-5.47-6.13-9.7-11.65-12.71-5.52-3.01-12.71-4.51-21.57-4.51h-31.49l-32.64,196.99h-58.06Z" style="fill: #e2e2e2;"/>
    <path d="M639.51,530.05c-19.14,0-35.4-3.34-48.8-10-13.4-6.67-23.18-15.85-29.36-27.56-6.18-11.7-8.12-24.93-5.82-39.69h57.74c-.98,6.13-.22,11.48,2.3,16.07,2.51,4.59,6.42,8.15,11.73,10.66,5.3,2.52,11.56,3.77,18.78,3.77s13.8-1.26,19.77-3.77c5.96-2.51,10.88-6.04,14.76-10.58,3.88-4.54,6.31-9.76,7.3-15.66,.98-6.01,.16-11.29-2.46-15.83-2.62-4.54-6.84-8.09-12.63-10.66-5.8-2.57-12.9-3.85-21.32-3.85h-23.46l6.73-41.33h23.46c7.44,0,14.19-1.23,20.26-3.69s11.04-5.88,14.93-10.25c3.88-4.37,6.31-9.46,7.3-15.25,.87-5.68,.3-10.66-1.72-14.93-2.02-4.26-5.25-7.63-9.68-10.09-4.43-2.46-9.87-3.69-16.32-3.69-6.78,0-13.07,1.23-18.86,3.69-5.8,2.46-10.61,5.91-14.43,10.33-3.83,4.43-6.29,9.65-7.38,15.66h-55.44c2.51-14.54,8.47-27.42,17.88-38.63,9.4-11.21,21.4-20.01,36-26.41s30.75-9.6,48.47-9.6,32.28,3.03,44.7,9.1c12.41,6.07,21.57,14.33,27.47,24.77,5.9,10.44,7.76,22.23,5.58,35.35-2.3,13.89-8.67,25.37-19.11,34.44-10.44,9.08-22.88,14.71-37.32,16.89l-.16,1.31c12.14,1.53,21.95,4.9,29.44,10.09,7.49,5.19,12.71,11.81,15.66,19.85,2.95,8.04,3.61,17.03,1.97,26.98-2.41,14-8.53,26.46-18.37,37.4-9.84,10.94-22.47,19.52-37.89,25.75-15.42,6.23-32.64,9.35-51.67,9.35Z" style="fill: #e2e2e2;"/>
  </g>
  <g>
    <path d="M975.22,592.6V172.21h131.2l68.28,193.55c2.82,9.03,6.11,20.55,9.88,34.56,3.76,14.01,7.57,29.02,11.43,45,3.85,15.99,7.43,31.46,10.72,46.41,3.29,14.95,6.07,27.89,8.32,38.79h-18.06c2.26-10.72,5.03-23.51,8.32-38.37,3.29-14.86,6.86-30.33,10.72-46.41,3.85-16.08,7.62-31.18,11.29-45.28,3.67-14.11,7.01-25.67,10.02-34.7l67.15-193.55h131.48v420.39h-86.34v-198.63c0-9.21,.14-20.6,.42-34.14s.66-28.12,1.13-43.73c.47-15.61,.89-31.36,1.27-47.26,.37-15.89,.66-30.9,.85-45h6.49c-3.76,15.43-7.86,31.32-12.27,47.68-4.42,16.36-8.84,32.31-13.26,47.82-4.42,15.52-8.56,29.72-12.41,42.6-3.86,12.89-7.19,23.56-10.02,32.02l-69.97,198.63h-72.23l-70.82-198.63c-3.01-8.46-6.45-19.09-10.3-31.88-3.86-12.79-8.04-26.9-12.56-42.32-4.51-15.42-9.03-31.32-13.54-47.68-4.51-16.36-8.84-32.45-12.98-48.25h7.9c.19,13.54,.47,28.21,.85,44.01,.37,15.8,.75,31.6,1.13,47.4,.38,15.8,.75,30.52,1.13,44.16,.38,13.64,.56,25.16,.56,34.56v198.63h-85.77Z" style="fill: #e2e2e2;"/>
    <path d="M1478.17,710.54V281.11h82.67v50.22h3.67c4.32-8.84,10.25-17.44,17.77-25.82,7.52-8.37,17.16-15.28,28.92-20.74,11.75-5.45,26-8.18,42.74-8.18,23.89,0,45.47,6.16,64.75,18.48,19.28,12.32,34.66,30.38,46.13,54.17,11.47,23.8,17.21,53.09,17.21,87.89s-5.6,63.3-16.79,87.18c-11.19,23.89-26.48,42.14-45.85,54.74-19.38,12.6-41.38,18.9-66.02,18.9-16.18,0-30.1-2.68-41.76-8.04-11.66-5.36-21.3-12.18-28.92-20.46-7.62-8.27-13.68-16.93-18.2-25.96h-2.26v167.03h-84.08Zm150.1-180.29c14.67,0,26.99-3.9,36.96-11.71,9.97-7.8,17.54-18.71,22.71-32.73,5.17-14.01,7.76-30.33,7.76-48.95s-2.59-34.61-7.76-48.53c-5.18-13.92-12.74-24.73-22.71-32.45-9.97-7.71-22.29-11.57-36.96-11.57s-26.57,3.81-36.82,11.43c-10.25,7.62-18.06,18.34-23.42,32.16-5.36,13.83-8.04,30.15-8.04,48.95s2.72,35.18,8.18,49.09c5.45,13.92,13.3,24.79,23.56,32.59,10.25,7.81,22.43,11.71,36.54,11.71Z" style="fill: #e2e2e2;"/>
    <path d="M1959.4,598.53c-31.6,0-59.21-5.55-82.81-16.65-23.61-11.1-42.09-26.28-55.44-45.57-13.36-19.28-20.22-41.33-20.6-66.16h86.05c.38,11.67,3.71,21.87,10.02,30.61,6.3,8.75,14.86,15.47,25.68,20.17,10.81,4.7,23.18,7.05,37.1,7.05s26.28-2.44,37.1-7.34c10.81-4.89,19.28-11.75,25.39-20.6,6.11-8.84,9.17-19.09,9.17-30.75s-3.24-21.91-9.73-30.75c-6.49-8.84-15.66-15.75-27.51-20.74-11.85-4.98-25.96-7.48-42.32-7.48h-38.37v-64.05h38.37c14.11,0,26.42-2.35,36.96-7.05,10.53-4.7,18.76-11.24,24.69-19.61,5.92-8.37,8.89-18.2,8.89-29.48s-2.59-20.78-7.76-29.06c-5.18-8.27-12.41-14.76-21.73-19.47-9.31-4.7-20.27-7.05-32.87-7.05s-23.98,2.31-34.14,6.91c-10.16,4.61-18.3,11.1-24.41,19.47-6.11,8.37-9.27,18.39-9.45,30.05h-82.67c.38-24.45,7.1-46.03,20.17-64.75,13.07-18.71,30.94-33.39,53.61-44.01,22.66-10.62,48.48-15.94,77.45-15.94s54.03,5.22,75.76,15.66c21.73,10.44,38.65,24.55,50.79,42.32,12.13,17.77,18.2,37.76,18.2,59.96,0,23.52-7.34,43.17-22.01,58.97-14.67,15.8-33.67,26.05-56.99,30.75v2.54c20.12,2.64,37.19,8.42,51.21,17.35,14.01,8.94,24.59,20.31,31.74,34.14,7.15,13.83,10.72,29.39,10.72,46.7,0,23.89-6.87,45.19-20.6,63.91-13.73,18.72-32.64,33.39-56.71,44.01-24.08,10.62-51.73,15.94-82.95,15.94Z" style="fill: #e2e2e2;"/>
    <path d="M2343.17,172.21v420.39h-86.34V172.21h86.34Zm61.79,420.39h-108.91v-73.92h104.68c27.27,0,50.08-4.89,68.42-14.67,18.34-9.78,32.12-24.78,41.33-45,9.21-20.22,13.82-45.85,13.82-76.88s-4.61-56.33-13.82-76.46c-9.22-20.12-22.95-35.08-41.19-44.86-18.25-9.78-40.91-14.67-68-14.67h-107.21v-73.92h112.29c42.32,0,78.67,8.42,109.05,25.25,30.37,16.84,53.79,40.96,70.25,72.37,16.46,31.42,24.69,68.84,24.69,112.29s-8.23,81.16-24.69,112.58c-16.46,31.41-40.02,55.58-70.68,72.51-30.66,16.93-67.34,25.39-110.04,25.39Z" style="fill: #e2e2e2;"/>
    <path d="M2781.22,598.81c-31.42,0-58.64-6.72-81.68-20.17-23.04-13.45-40.82-32.26-53.32-56.43-12.51-24.17-18.76-52.24-18.76-84.22s6.25-60.61,18.76-84.78c12.51-24.17,30.28-42.98,53.32-56.43,23.04-13.45,50.27-20.17,81.68-20.17s58.35,6.73,81.4,20.17c23.04,13.45,40.81,32.26,53.33,56.43,12.51,24.17,18.76,52.43,18.76,84.78s-6.26,60.05-18.76,84.22c-12.51,24.17-30.29,42.98-53.33,56.43-23.04,13.45-50.18,20.17-81.4,20.17Zm0-66.59c14.67,0,27.04-4.04,37.1-12.13,10.06-8.08,17.73-19.23,23-33.43,5.26-14.2,7.9-30.52,7.9-48.95s-2.64-34.99-7.9-49.09c-5.27-14.11-12.93-25.2-23-33.29-10.06-8.09-22.43-12.13-37.1-12.13s-27.09,4.05-37.24,12.13c-10.16,8.09-17.82,19.19-22.99,33.29-5.18,14.11-7.76,30.47-7.76,49.09s2.58,34.75,7.76,48.95c5.17,14.2,12.79,25.35,22.85,33.43,10.06,8.09,22.52,12.13,37.38,12.13Z" style="fill: #e2e2e2;"/>
    <path d="M3019.8,592.6l-92.83-311.49h88.31l27.37,113.7c4.89,21.07,10.02,43.69,15.38,67.86,5.36,24.17,10.39,50.27,15.09,78.3h-10.16c5.08-27.65,10.48-53.61,16.22-77.87,5.74-24.26,11.24-47.02,16.51-68.28l28.78-113.7h77.31l27.93,113.7c5.08,21.26,10.48,43.97,16.22,68.14,5.74,24.17,11.14,50.18,16.22,78.01h-9.88c4.7-27.65,9.59-53.56,14.67-77.73,5.08-24.17,10.06-46.98,14.95-68.42l27.37-113.7h89.72l-93.39,311.49h-86.05l-34.7-121.04c-3.39-11.85-6.77-24.87-10.16-39.08-3.39-14.2-6.68-28.64-9.88-43.31-3.2-14.67-6.4-28.5-9.59-41.48h14.95c-3.2,12.98-6.4,26.8-9.59,41.48-3.2,14.67-6.45,29.11-9.73,43.31-3.29,14.2-6.73,27.23-10.3,39.08l-34.99,121.04h-85.77Z" style="fill: #e2e2e2;"/>
    <path d="M3496.23,413.72v178.88h-84.08V281.11h80.13l1.13,78.44h-7.05c8.46-26.33,21.21-46.74,38.23-61.23,17.02-14.48,38.89-21.73,65.6-21.73,21.63,0,40.53,4.7,56.71,14.11,16.17,9.41,28.68,22.95,37.52,40.63,8.84,17.68,13.26,38.94,13.26,63.76v197.5h-84.08v-182.55c0-19.75-4.99-35.13-14.95-46.13-9.97-11-23.89-16.51-41.76-16.51-11.85,0-22.34,2.59-31.46,7.76-9.13,5.18-16.27,12.65-21.44,22.43-5.18,9.78-7.76,21.82-7.76,36.11Z" style="fill: #e2e2e2;"/>
    <path d="M3822.28,172.21v420.39h-84.08V172.21h84.08Z" style="fill: #e2e2e2;"/>
    <path d="M4003.3,598.81c-31.42,0-58.64-6.72-81.68-20.17-23.04-13.45-40.82-32.26-53.33-56.43-12.51-24.17-18.76-52.24-18.76-84.22s6.25-60.61,18.76-84.78c12.51-24.17,30.28-42.98,53.33-56.43,23.04-13.45,50.27-20.17,81.68-20.17s58.36,6.73,81.4,20.17c23.04,13.45,40.81,32.26,53.33,56.43,12.51,24.17,18.76,52.43,18.76,84.78s-6.26,60.05-18.76,84.22c-12.51,24.17-30.29,42.98-53.33,56.43-23.04,13.45-50.18,20.17-81.4,20.17Zm0-66.59c14.67,0,27.04-4.04,37.1-12.13,10.06-8.08,17.73-19.23,23-33.43,5.26-14.2,7.9-30.52,7.9-48.95s-2.64-34.99-7.9-49.09c-5.27-14.11-12.93-25.2-23-33.29-10.06-8.09-22.43-12.13-37.1-12.13s-27.09,4.05-37.24,12.13c-10.16,8.09-17.82,19.19-22.99,33.29-5.18,14.11-7.76,30.47-7.76,49.09s2.58,34.75,7.76,48.95c5.17,14.2,12.79,25.35,22.85,33.43,10.06,8.09,22.52,12.13,37.38,12.13Z" style="fill: #e2e2e2;"/>
    <path d="M4277.99,598.53c-19.94,0-37.81-3.48-53.61-10.44-15.8-6.96-28.21-17.35-37.24-31.18s-13.54-30.99-13.54-51.49c0-17.49,3.2-32.07,9.59-43.73,6.39-11.66,15.14-21.06,26.24-28.21,11.1-7.15,23.74-12.56,37.95-16.22,14.2-3.67,29.11-6.25,44.72-7.76,18.24-1.88,32.91-3.62,44.01-5.22,11.1-1.6,19.19-4.09,24.26-7.48,5.08-3.39,7.62-8.46,7.62-15.24v-1.41c0-8.65-1.93-16.03-5.78-22.15-3.86-6.11-9.45-10.81-16.79-14.11-7.33-3.29-16.27-4.94-26.8-4.94s-20.08,1.65-28.07,4.94c-8,3.29-14.49,7.71-19.47,13.26-4.99,5.55-8.51,11.81-10.58,18.76l-77.59-9.88c4.33-18.81,12.6-34.89,24.83-48.25,12.22-13.35,27.83-23.56,46.84-30.61,19-7.05,40.63-10.58,64.89-10.58,17.68,0,34.47,2.07,50.36,6.21,15.89,4.14,30.05,10.54,42.46,19.19,12.41,8.65,22.15,19.61,29.2,32.87s10.58,29.11,10.58,47.54v210.2h-80.41v-43.45h-2.54c-5.08,9.78-11.81,18.39-20.17,25.82-8.37,7.43-18.39,13.22-30.05,17.35-11.66,4.13-25.3,6.21-40.91,6.21Zm23.7-58.97c13.35,0,25.01-2.63,34.99-7.9,9.97-5.26,17.78-12.32,23.42-21.16,5.64-8.84,8.46-18.81,8.46-29.91v-33.01c-2.45,1.51-6.07,3.01-10.86,4.51-4.8,1.51-10.21,2.82-16.22,3.95-6.02,1.13-12.09,2.17-18.2,3.1-6.12,.94-11.71,1.79-16.79,2.54-10.16,1.51-19.19,3.91-27.09,7.19-7.9,3.29-14.01,7.72-18.34,13.26-4.33,5.55-6.49,12.46-6.49,20.74s2.02,14.58,6.07,20.03c4.04,5.46,9.59,9.59,16.65,12.41,7.05,2.82,15.19,4.23,24.41,4.23Z" style="fill: #e2e2e2;"/>
    <path d="M4607.71,597.96c-24.64,0-46.65-6.3-66.02-18.9-19.38-12.6-34.66-30.85-45.85-54.74-11.19-23.89-16.79-52.95-16.79-87.18s5.74-64.09,17.21-87.89c11.47-23.79,26.9-41.85,46.27-54.17,19.37-12.32,40.91-18.48,64.61-18.48,16.74,0,30.94,2.73,42.6,8.18,11.66,5.46,21.3,12.37,28.92,20.74,7.62,8.37,13.59,17.07,17.92,26.1h2.26V172.21h84.08v420.39h-82.95v-49.38h-3.1c-4.33,9.03-10.4,17.73-18.2,26.1-7.81,8.37-17.49,15.24-29.06,20.6-11.57,5.36-25.53,8.04-41.9,8.04Zm24.83-67.71c14.48,0,26.8-3.9,36.96-11.71,10.16-7.8,17.96-18.67,23.42-32.59,5.45-13.92,8.18-30.28,8.18-49.09s-2.68-35.13-8.04-48.95c-5.36-13.82-13.17-24.55-23.42-32.16-10.25-7.62-22.62-11.43-37.1-11.43s-26.48,3.86-36.54,11.57c-10.06,7.71-17.68,18.53-22.85,32.45-5.18,13.92-7.76,30.1-7.76,48.53s2.58,34.94,7.76,48.95c5.17,14.01,12.79,24.93,22.85,32.73,10.06,7.81,22.24,11.71,36.54,11.71Z" style="fill: #e2e2e2;"/>
    <path d="M4964.5,598.81c-31.79,0-59.21-6.58-82.25-19.75-23.04-13.16-40.82-31.79-53.33-55.86-12.51-24.08-18.76-52.38-18.76-84.93s6.21-60.33,18.62-84.5c12.41-24.17,29.91-43.07,52.48-56.71,22.57-13.64,49-20.46,79.28-20.46,20.88,0,40.25,3.39,58.12,10.16,17.87,6.77,33.53,16.79,46.98,30.05,13.45,13.26,23.88,29.81,31.32,49.66,7.43,19.85,11.14,42.74,11.14,68.7v23.42h-264.37v-53.04h223.46l-39.22,13.82c0-16.17-2.54-30.19-7.62-42.04-5.08-11.85-12.56-21.02-22.43-27.51s-22.06-9.73-36.54-9.73-26.8,3.29-36.96,9.88c-10.16,6.59-17.92,15.61-23.28,27.09-5.36,11.48-8.04,24.64-8.04,39.5v37.24c0,17.49,3.01,32.35,9.03,44.58,6.02,12.23,14.53,21.49,25.53,27.79,11,6.3,23.84,9.45,38.51,9.45,9.97,0,19.04-1.45,27.23-4.37,8.18-2.91,15.14-7.15,20.88-12.7,5.74-5.55,10.11-12.37,13.12-20.46l76.46,11c-4.89,18.06-13.68,33.81-26.38,47.26-12.7,13.45-28.59,23.89-47.68,31.32-19.09,7.43-40.87,11.14-65.32,11.14Z" style="fill: #e2e2e2;"/>
    <path d="M5134.24,592.6V281.11h81.54v53.89h2.82c5.64-19,15.05-33.34,28.21-43.03,13.16-9.69,28.78-14.53,46.84-14.53,4.51,0,9.21,.19,14.11,.56,4.89,.38,9.12,.94,12.7,1.69v74.49c-3.58-1.13-8.89-2.02-15.94-2.68-7.05-.66-13.87-.99-20.46-.99-12.41,0-23.66,2.73-33.72,8.18-10.06,5.46-17.92,13.17-23.56,23.14-5.64,9.97-8.46,21.73-8.46,35.27v175.49h-84.08Z" style="fill: #e2e2e2;"/>
  </g>
</svg>