<?xml version="1.0" encoding="UTF-8"?>
<svg id="Capa_1" data-name="Capa 1" xmlns="http://www.w3.org/2000/svg" width="3703.44" height="841.43" viewBox="0 0 3703.44 841.43">
  <g>
    <path d="M1191.44,596.63c-35.73,0-66.5-7.39-92.37-22.19-25.9-14.77-45.84-35.69-59.92-62.76-14.04-27.03-21.06-58.86-21.06-95.39s6.98-67.78,20.92-94.92,33.58-48.39,58.94-63.7c25.36-15.32,55.04-22.99,89.06-22.99,23.47,0,45.22,3.82,65.3,11.42,20.08,7.6,37.65,18.84,52.79,33.76,15.1,14.88,26.85,33.51,35.18,55.77,8.33,22.3,12.51,48.02,12.51,77.16v26.3h-296.97v-59.59h251.02l-44.06,15.53c0-18.15-2.84-33.91-8.55-47.22-5.71-13.32-14.12-23.61-25.21-30.89-11.1-7.28-24.77-10.95-41.04-10.95s-30.12,3.71-41.51,11.1c-11.42,7.39-20.12,17.54-26.16,30.41s-9.02,27.69-9.02,44.38v41.84c0,19.65,3.38,36.34,10.15,50.06,6.77,13.75,16.33,24.16,28.67,31.21,12.33,7.06,26.78,10.62,43.26,10.62,11.2,0,21.39-1.64,30.6-4.91,9.2-3.27,16.99-8.04,23.47-14.26,6.44-6.22,11.35-13.9,14.73-22.99l85.89,12.37c-5.49,20.3-15.39,37.98-29.65,53.08-14.26,15.1-32.12,26.85-53.55,35.18-21.46,8.33-45.91,12.51-73.38,12.51l-.04,.04Z" style="fill: #f2f2f2;"/>
    <path d="M1554.62,596.92c-28.52,0-53.84-4.18-75.92-12.51-22.08-8.33-40.05-20.45-53.88-36.31-13.82-15.86-22.56-34.85-26.16-57.04l89.06-12.04c4,16.08,11.71,28.19,23.14,36.45,11.42,8.22,26.63,12.37,45.62,12.37,17.97,0,32.12-3.42,42.46-10.3,10.33-6.88,15.53-15.57,15.53-26.16,0-9.09-3.75-16.52-11.24-22.34-7.49-5.82-18.74-10.3-33.76-13.46l-60.54-12.04c-33.8-6.98-59.15-18.81-76.07-35.51-16.92-16.7-25.36-38.24-25.36-64.65,0-22.19,6.08-41.4,18.23-57.7,12.15-16.26,29.25-28.85,51.33-37.73,22.08-8.88,47.91-13.32,77.49-13.32s52.82,4,73.52,12.04c20.7,8.04,37.36,19.43,49.91,34.23,12.55,14.81,20.55,32.23,23.94,52.28l-84.62,11.71c-2.95-12.48-9.57-22.66-19.83-30.6-10.26-7.93-23.94-11.9-41.04-11.9-15.86,0-28.89,3.31-39.14,9.97-10.26,6.66-15.39,15.28-15.39,25.83,0,8.88,3.49,16.33,10.48,22.34,6.98,6.04,18.37,10.62,34.23,13.79l63.37,12.66c34.23,6.77,59.63,17.97,76.22,33.58,16.59,15.64,24.88,36.02,24.88,61.15,0,23.03-6.66,43.15-19.97,60.39-13.32,17.24-31.76,30.63-55.3,40.24-23.57,9.6-50.68,14.41-81.31,14.41l.11,.15Z" style="fill: #f2f2f2;"/>
    <path d="M1930.21,596.63c-35.29,0-65.88-7.57-91.75-22.66-25.9-15.1-45.84-36.23-59.92-63.37-14.04-27.14-21.06-58.68-21.06-94.62s7.02-68.1,21.06-95.24c14.04-27.14,34.02-48.28,59.92-63.37,25.87-15.1,56.46-22.66,91.75-22.66s65.56,7.57,91.42,22.66c25.87,15.1,45.84,36.23,59.92,63.37,14.04,27.14,21.06,58.9,21.06,95.24s-7.02,67.45-21.06,94.62c-14.04,27.14-34.02,48.28-59.92,63.37-25.87,15.1-56.35,22.66-91.42,22.66Zm0-74.8c16.48,0,30.38-4.55,41.69-13.64,11.31-9.09,19.9-21.61,25.83-37.54,5.93-15.93,8.88-34.27,8.88-54.97s-2.95-39.29-8.88-55.15c-5.93-15.86-14.52-28.3-25.83-37.4-11.31-9.09-25.21-13.64-41.69-13.64s-30.41,4.55-41.84,13.64c-11.42,9.09-20.01,21.54-25.83,37.4-5.82,15.86-8.73,34.23-8.73,55.15s2.91,39.04,8.73,54.97c5.82,15.97,14.37,28.49,25.68,37.54,11.31,9.09,25.28,13.64,41.98,13.64Z" style="fill: #f2f2f2;"/>
    <path d="M2286.44,594.7c-24.3,0-45.55-5.28-63.7-15.86-18.15-10.55-32.23-25.83-42.16-45.8-9.93-19.97-14.92-43.8-14.92-71.49V239.71h94.44v205.07c0,22.19,5.64,39.4,16.95,51.66,11.31,12.26,26.88,18.37,46.75,18.37,13.31,0,25.1-2.84,35.32-8.55s18.26-14.12,24.08-25.21c5.82-11.1,8.73-24.56,8.73-40.42V239.71h94.77v349.9h-90.33l-1.27-88.11h7.93c-9.71,29.58-24.16,52.5-43.26,68.79-19.14,16.26-43.58,24.41-73.38,24.41h.04Z" style="fill: #f2f2f2;"/>
    <path d="M2564.38,589.65V239.74h91.6v60.54h3.17c6.33-21.36,16.92-37.43,31.69-48.35,14.77-10.88,32.34-16.33,52.61-16.33,5.06,0,10.33,.22,15.83,.62,5.49,.44,10.26,1.06,14.26,1.89v83.67c-4-1.27-9.97-2.26-17.9-3.02-7.93-.73-15.57-1.09-22.99-1.09-13.93,0-26.56,3.06-37.87,9.2-11.31,6.15-20.12,14.81-26.45,25.98-6.33,11.21-9.5,24.41-9.5,39.62v197.14h-94.44v.04Z" style="fill: #f2f2f2;"/>
    <path d="M2821.12,589.65v-58.64l173.06-212.97v-2.22h-168.62v-76.07h282.38v63.7l-164.18,207.91v2.22h169.57v76.07h-292.2Z" style="fill: #f2f2f2;"/>
    <path d="M3282.89,117.4v472.25h-94.44V117.4h94.44Z" style="fill: #f2f2f2;"/>
    <path d="M3366.89,716.72l17.14-72.25,18.37,2.55c11.61,2.55,21.83,2.95,30.6,1.27,8.77-1.71,15.86-5.68,21.25-11.9,5.38-6.22,8.91-14.84,10.62-25.83l4.11-20.3-132.17-350.52h100.15l58.94,179.72c7.17,22.41,13.17,44.86,17.9,67.34,4.77,22.48,9.97,45.8,15.68,69.89h-22.81c5.71-24.08,11.42-47.44,17.1-70.03,5.71-22.63,12.15-45,19.32-67.19l61.15-179.72h99.21l-149.92,393.96c-7.2,18.81-16.23,34.96-27.1,48.49-10.88,13.53-24.23,23.87-40.09,31.07-15.86,7.17-34.96,10.77-57.37,10.77-12.04,0-23.5-.69-34.38-2.07-10.88-1.38-20.12-3.13-27.72-5.24h.04Z" style="fill: #f2f2f2;"/>
  </g>
  <path d="M897.2,197.69c-3.89-19.39-15.46-73.2-60.83-121.65C774.93,10.44,695.55,1.67,674.16,0H192.63C128.42,280.49,64.21,560.94,0,841.43H106.45L380.17,461.26c67.59,104.77,135.19,209.51,202.75,314.29h217.95c-52.39-82.8-104.77-165.6-157.12-248.37,25.65-2.76,67.12-10.66,111.5-35.47,32.49-18.19,55.73-39.4,70.98-55.77,15.68-16.44,39.07-44.97,55.77-86.18,29.72-73.45,18.12-137.66,15.21-152.07h0Zm-228.1,111.5c-2.18,4.91-11.75,25.58-35.47,45.62-33.03,27.9-71.2,40.56-101.39,40.56h-217.95c38.85-77.71,77.71-155.45,116.6-233.16h136.86c11.42-.51,51.3-.98,81.09,25.36,3.97,3.53,13.06,11.68,20.26,25.36,9.5,17.97,9.97,34.45,10.15,45.62,.4,25.21-7.2,44.02-10.15,50.68v-.04Z" style="fill: #0074ff;"/>
</svg>