<?xml version="1.0" encoding="UTF-8"?>
<svg id="Capa_1" data-name="Capa 1" xmlns="http://www.w3.org/2000/svg" width="5225.7" height="834.54" viewBox="0 0 5225.7 834.54">
  <g>
    <path d="M3666.01,652.7h-96.3c-.37-7.6-.99-14.49-.99-21.38-.08-59.69,.17-119.39-.21-179.08-.09-13.55-.67-27.45-3.73-40.56-9.71-41.61-44.7-64.52-89.54-60.02-48.45,4.87-76.03,34.54-76.85,85.96-1.03,64.22-.31,128.47-.34,192.7v22.07h-95.58V273.73h95.33v42.52c37.42-39.23,80.06-52.68,129.22-48.68,49.9,4.06,88.83,26.08,117.27,69.64,2.35-2.68,3.9-4.26,5.25-6.01,45.99-59.79,119.41-80.93,189.78-53.77,58.68,22.65,88.48,69.11,91.25,128.78,3.77,81.44,.94,163.19,.94,246.05h-96.2v-20.33c0-64.23,.5-128.48-.19-192.7-.69-64.33-47.56-100.23-109.93-85.3-33.91,8.12-57.4,36.8-58.19,75.91-1.34,66.16-.76,132.34-.98,198.53-.03,7.64,0,15.27,0,24.31h0v.02Z" style="fill: #e0e0e0;"/>
    <path d="M1900.27,601.94v232.6h-95.28V273.65h95.07v47.66c3.47-1.46,5.48-1.68,6.42-2.81,71.73-85.89,239.64-70.94,283.11,69.39,20.48,66.1,16.49,131.06-19.72,191.17-56.83,94.33-181.99,108.71-260.55,31.13-1.77-1.75-3.67-3.37-9.05-8.25h0Zm201.43-145.16c-.32-37.38-14.35-75.11-56.95-95.36-37.83-17.98-74.81-13.67-107.35,13.41-42.75,35.58-49.54,112.31-15.07,159.85,33.95,46.82,101.42,53.72,143.96,14.69,25.05-22.98,34.63-52.42,35.4-92.58h.01Z" style="fill: #e0e0e0;"/>
    <path d="M2795.59,653.48c-37.19,0-70.77,.53-104.31-.56-5.12-.17-11.65-6.85-14.72-12.15-27.61-47.64-54.61-95.63-81.77-143.53-13-22.92-33.86-32.56-62.58-28.89v183.52h-95.72V174.99c3.09-.68,6.08-1.94,9.06-1.91,66.87,.47,133.82-.75,200.59,2.16,73.12,3.18,127.03,49.11,140.91,115.04,14.77,70.16-19.91,135.09-86.49,161.93-5.94,2.4-11.85,4.87-19.02,7.82,37.82,64.17,75.13,127.44,114.05,193.44h0Zm-262.37-260.85c33.61,0,65.99,1.81,98.08-.49,34.94-2.51,56.1-26.82,58.19-61.38,2.44-40.6-13.22-68.48-47.41-73.37-35.47-5.08-71.78-4.19-108.86-5.97v141.21h0Z" style="fill: #e0e0e0;"/>
    <path d="M3221.1,534.03c-3.09,8.83-5.05,16.88-8.59,24.16-32.12,66.12-87.44,96.67-158.72,101.75-86.1,6.15-161.79-42.01-189.71-120.09-31.9-89.2-5.26-190.74,62.54-239.3,91.2-65.32,273.63-46.37,301.53,116.31,3.57,20.84,1.66,42.64,2,64,.24,14.86-11.21,11.5-19.6,11.51-79.28,.17-158.58,.1-237.87,.1h-21.07c1.81,41.27,25.37,72.63,60.88,83.01,40.63,11.88,75.25,.27,99.92-32.64,3.31-4.41,9.74-8.94,14.87-9.12,25.96-.93,51.98-.47,77.97-.41,4.5,0,9,.39,15.84,.71h.01Zm-92.57-108.02c2.12-43.09-33.89-77.86-81.32-80.29-51.5-2.64-92.09,31.5-94.17,80.29h175.49Z" style="fill: #e0e0e0;"/>
    <path d="M4662.45,492.49c10,66.3,59.61,100.89,117.68,82.63,15.54-4.89,29.78-17.64,41.44-29.8,7.36-7.68,12.79-12.51,23.73-12.25,28.53,.68,57.08,.23,88.25,.23-10.86,38.81-31.27,69.01-62.46,90.49-64.86,44.67-135.07,48.94-205.21,16.16-67.58-31.59-97.79-90.04-101.5-162.84-3.56-69.81,14.41-131.42,72.98-175.25,89.64-67.1,274.84-48.95,302.95,115.04,3.57,20.84,1.66,42.64,1.99,64,.23,14.88-11.25,11.46-19.63,11.48-79.28,.18-158.58,.1-237.86,.11h-22.36Zm178.05-66.05c3.02-45.61-36.78-81.09-88.56-80.82-48.22,.24-89.11,38.57-85.47,80.82h174.03Z" style="fill: #e0e0e0;"/>
    <path d="M1323.27,552.33c3.94-11.12,6.26-17.51,8.47-23.94,38.87-112.53,77.94-225,116.28-337.72,4.4-12.95,9.82-18.8,24.33-18.15,27.14,1.22,54.38,.35,84.28,.35-2.51,7.96-4.1,13.81-6.17,19.48-54.1,147.65-108.4,295.23-162.11,443.02-4.86,13.38-10.72,19.37-26.01,18.58-28.51-1.47-57.17,.17-85.71-.92-5.84-.22-14.8-5.48-16.67-10.51-56.84-152.85-112.99-305.95-169.17-459.04-.85-2.32-.75-4.99-1.47-10.28,32.41,0,63.98-.81,95.41,.88,4.74,.26,10.49,11.59,13,18.76,39.33,112.37,78.19,224.9,117.19,337.38,1.99,5.75,4.29,11.39,8.36,22.1h0Z" style="fill: #e0e0e0;"/>
    <path d="M4176.62,272.11c34.99,0,66.19-.71,97.3,.56,6.63,.27,15.07,6.27,19.11,12.09,23.21,33.49,45.34,67.7,69.59,104.33,21.07-35.08,41.52-67.62,60.28-101.11,7.02-12.53,14.98-16.84,29.09-16.22,26.95,1.18,53.98,.34,84.55,.34-6.37,9.93-10.71,16.89-15.22,23.72-32.84,49.79-65.13,99.96-98.96,149.07-9.34,13.55-8.25,22.5,.58,35.4,34.78,50.82,68.37,102.46,102.36,153.83,3.5,5.29,6.7,10.78,11.98,19.32-35.98,0-69.34,.57-102.63-.6-5.16-.18-11.2-7.55-14.87-12.93-22.87-33.54-45.17-67.46-69.42-103.88-21.18,35.99-41.2,69.08-60.17,102.76-6.09,10.82-12.73,15.65-25.76,15.09-27.75-1.17-55.57-.36-86.84-.36,5.47-8.83,9.27-15.23,13.32-21.45,33.6-51.61,66.82-103.49,101.21-154.58,7.91-11.75,7.28-19.63-.39-30.88-35.02-51.44-69.17-103.5-103.54-155.38-3.67-5.54-6.88-11.38-11.54-19.12h-.03Z" style="fill: #e0e0e0;"/>
    <path d="M5014.12,652.27V273.32h95.07v50.81c18.28-14.71,33.41-30.89,51.94-40.66,18.82-9.92,40.99-13.52,64.57-20.77v105.97c-8.54,0-17.36-.11-26.18,.02-60.31,.88-88.04,27.62-89.04,88.25-.95,58.32-.26,116.68-.3,175.01v20.33h-96.06Z" style="fill: #e0e0e0;"/>
    <path d="M1613.86,272.67h94.03v379.62h-94.03V272.67Z" style="fill: #e0e0e0;"/>
    <path d="M4028.01,272.67h94.04v379.62h-94.04V272.67Z" style="fill: #e0e0e0;"/>
    <path d="M1720.98,171.84c-.56,31.5-27.3,56.2-60.23,55.62-33.26-.59-59.06-25.75-58.78-57.32,.29-32.35,28.05-57.91,61.47-56.6,33.49,1.31,58.1,26.26,57.53,58.3h.01Z" style="fill: #e0e0e0;"/>
    <path d="M4135.14,171.34c-.35,31.62-26.66,56.35-59.73,56.12-33.17-.23-59.2-25.17-59.28-56.82-.09-32.26,27.47-58.08,60.97-57.12,33.39,.96,58.39,25.86,58.04,57.81h0Z" style="fill: #e0e0e0;"/>
  </g>
  <g>
    <rect y=".03" width="808.82" height="808.82" rx="93.06" ry="93.06" style="fill: #0f0d0e;"/>
    <path d="M175.62,302.35L418.03,.03h316.44s74.34-3.83,74.34,74.34v206.09l-245.67,340.74L231.43,404.44l-55.81-102.1" style="fill: #020202;"/>
    <g>
      <path d="M201.22,376.1c-27.6-1.79-41.5-11.69-45.79-31.94-3.43-16.18,4.96-33.54,20.2-41.82,15.22-8.27,33.94-5.33,46.28,7.29,13.39,13.69,14.41,31.68,2.79,51.93,27.75,23.11,55.54,46.24,83.92,69.88,26-52.21,51.63-103.69,77.58-155.78-12.75-7.92-20.55-19.13-20.38-35.02,.13-11.24,4.02-20.7,12.25-28.32,16.11-14.9,42.56-13.33,56.31,3.27,14.64,17.67,12.8,44.97-11.22,60.27,25.61,51.43,51.24,102.9,77.47,155.56,28.38-23.61,56.1-46.66,84.12-69.96-6.24-9.78-10.02-20.06-7.63-32.2,3.32-16.87,18.68-30.76,35.51-31.4,21.44-.81,36.71,11.59,40.44,29.31,5.9,28.05-12.95,48.62-38.21,48.48-5.18-.03-6.99,1.4-8.08,6.71-9.48,46.21-19.48,92.32-29.04,138.52-1.34,6.48-3.84,8.86-10.79,8.84-108.83-.23-217.66-.2-326.5-.07-5.1,0-7.39-1.41-8.44-6.62-5.29-26.33-10.96-52.58-16.5-78.87-4.76-22.6-9.51-45.21-14.3-68.04l.03-.02h-.02Z" style="fill: #ffd317;"/>
      <path d="M404.99,566.14c54.87,0,109.74,.13,164.61-.16,6.84-.04,9.1,1.93,8.39,8.57-1.12,10.68-.81,21.62-2.98,32.07-2.19,10.61-12.86,17.37-23.8,17.37H258.51c-13.92,0-25.77-11.02-26.51-25.12-.48-9.27-.17-18.57-.57-27.85-.17-3.95,1.32-5.24,4.97-4.89,1.09,.11,2.21,.02,3.32,.02h165.27Z" style="fill: #ffd317;"/>
    </g>
  </g>
</svg>