<?xml version="1.0" standalone="no"?>
<!DOCTYPE svg PUBLIC "-//W3C//DTD SVG 20010904//EN"
 "http://www.w3.org/TR/2001/REC-SVG-20010904/DTD/svg10.dtd">
<svg version="1.0" xmlns="http://www.w3.org/2000/svg"
 width="1em" height="1em" viewBox="0 0 4055.000000 4055.000000"
 preserveAspectRatio="xMidYMid meet">

<g transform="translate(0.000000,4055.000000) scale(0.100000,-0.100000)"
fill="currentColor" stroke="none">
<path d="M7400 39563 c-311 -18 -694 -66 -973 -123 -1948 -394 -3614 -1618
-4582 -3365 -519 -936 -798 -1964 -835 -3074 -13 -382 -13 -25054 0 -25436 23
-706 136 -1341 351 -1980 507 -1507 1549 -2801 2924 -3632 102 -62 468 -263
479 -263 3 0 52 -23 108 -51 103 -50 123 -60 313 -139 632 -263 1298 -423
2055 -492 215 -19 25855 -19 26070 0 1013 93 1877 349 2715 808 1340 733 2409
1917 2992 3313 321 772 489 1531 523 2376 13 337 13 25226 0 25555 -40 962
-260 1849 -665 2687 -365 754 -809 1364 -1431 1963 -695 670 -1560 1195 -2489
1508 -493 167 -951 265 -1525 329 -146 16 -907 18 -13065 18 -7100 1 -12935 0
-12965 -2z m13525 -3587 c469 -51 941 -167 1355 -334 1016 -407 1860 -1137
2410 -2082 80 -137 223 -418 265 -520 94 -228 118 -291 164 -429 63 -191 110
-362 150 -551 76 -361 100 -592 111 -1085 13 -552 12 -9943 0 -10245 -42 -991
-332 -1899 -859 -2683 -284 -423 -686 -845 -1110 -1166 -585 -442 -1307 -759
-2071 -910 -389 -76 -597 -96 -1035 -95 -342 0 -386 2 -584 27 -896 113 -1687
431 -2388 958 -323 244 -670 584 -914 899 -640 823 -999 1795 -1070 2895 -9
133 -12 1537 -13 5355 -1 4935 0 5184 17 5370 72 763 299 1498 657 2122 337
586 786 1100 1310 1499 542 412 1170 707 1846 868 177 42 509 97 669 110 72 6
148 13 170 15 109 10 779 -3 920 -18z m9557 -12325 l24 -28 5 -934 c12 -2769
6 -3171 -67 -3954 -127 -1376 -436 -2446 -1010 -3492 -273 -498 -592 -947
-1008 -1423 -124 -142 -533 -553 -678 -683 -717 -638 -1549 -1188 -2493 -1647
-424 -206 -729 -327 -1180 -469 -168 -53 -254 -78 -605 -176 -47 -13 -320 -85
-608 -160 -627 -163 -658 -173 -740 -256 -58 -59 -84 -144 -85 -277 0 -53 2
-797 4 -1652 l4 -1555 2773 -3 2772 -2 -2 -1113 -3 -1112 -7232 -3 -7233 -2 0
1105 0 1105 2781 0 2781 0 -5 1548 c-4 1613 -5 1636 -48 1772 -26 82 -48 117
-103 168 -87 80 -171 111 -611 222 -814 205 -1258 346 -1870 593 -1776 716
-3205 1819 -4286 3307 -79 109 -345 505 -380 567 -9 15 -47 78 -84 138 -88
144 -241 418 -348 625 -465 898 -771 1834 -881 2695 -62 482 -67 745 -64 3118
l3 1987 1485 0 1485 0 5 -1832 c5 -1640 8 -1851 23 -2008 103 -1034 392 -1897
927 -2765 724 -1175 1668 -2050 2830 -2624 892 -440 1843 -688 3010 -783 209
-17 1006 -17 1205 0 223 19 588 67 775 101 1325 244 2493 830 3540 1775 1329
1200 2033 2560 2197 4241 15 163 17 357 20 2035 2 1020 5 1861 8 1868 3 9 307
12 1474 12 l1469 0 24 -29z"/>
</g>
</svg>
