<?xml version="1.0" encoding="UTF-8"?>
<svg id="Capa_1" data-name="Capa 1" xmlns="http://www.w3.org/2000/svg" width="5224.09" height="808.82" viewBox="0 0 5224.09 808.82">
  <g>
    <path d="M1494.42,191.28l-139.01,417.98h-103.82l-136.89-417.98h95.54l94,313.23,95.24-313.23s94.93,0,94.93,0Z" style="fill: #e2e2e2;"/>
    <path d="M1667.14,297.84c45.31,0,82.38,14.59,111.17,43.81,28.37,28.99,42.58,67.56,42.58,115.75s-15.09,89.42-45.31,118.8c-28.37,27.56-65.44,41.34-111.17,41.34-48.58,0-87.27-15.32-116.06-45.92-27.37-29.41-41.04-67.37-41.04-113.91s13.36-83.61,40.11-111.75c29.99-32.07,69.91-48.08,119.72-48.08v-.04Zm-2.46,61.55c-23.29,0-41.38,8.66-54.36,26.02s-19.44,41.65-19.44,72.87,6.54,55.43,19.59,71.95c13.28,17.13,31.34,25.71,54.2,25.71,21.44,0,38.57-7.74,51.43-23.29,14.09-17.13,21.13-42.27,21.13-75.33,0-30.6-6.31-54.39-18.98-71.33-12.66-17.13-30.53-26.02-53.59-26.64v.04Z" style="fill: #e2e2e2;"/>
    <path d="M2150.95,492.89c-4.08,30.22-14.4,55.43-30.91,75.64-27.14,32.68-65.33,49-114.52,49s-90.35-16.86-118.49-50.51c-23.87-28.56-35.84-64.09-35.84-106.55,0-52.05,15.94-93.08,47.77-123.11,27.95-26.33,63.9-39.5,107.79-39.5,40.42,0,73.37,10.24,98.89,30.76,25.52,20.52,40,48.43,43.46,83.77h-81.46c-3.04-16.55-9.85-29.29-20.36-38.26s-23.83-13.47-39.96-13.47c-22.87,0-40.69,8.58-53.43,25.71-12.74,17.13-19.13,41.15-19.13,71.95,0,27.37,5.12,49.39,15.32,66.13,12.43,20.21,30.91,30.33,55.43,30.33,36.76,0,58.28-20.63,64.59-61.86h80.84v-.04Z" style="fill: #e2e2e2;"/>
    <path d="M2467.88,609.26h-84.8c-3.7-11.01-5.5-20.83-5.5-29.41-25.71,25.1-59.01,37.65-99.82,37.65-32.26,0-57.28-7.24-75.03-21.75-20.63-16.75-30.91-40-30.91-69.83,0-38.19,17.67-64.59,52.97-79.3,14.47-6.12,40.84-11.55,78.99-16.24,32.64-4.27,53.08-8.43,61.25-12.4,8.16-3.96,12.24-11.97,12.24-24.02,0-26.75-18.17-40.11-54.51-40.11-19.21,0-33.22,3.43-42.11,10.28s-14.67,18.63-17.28,35.38h-78.68c2.66-33.49,15.78-58.78,39.34-75.95,23.56-17.17,57.2-25.71,100.9-25.71,47.96,0,83.61,9.59,106.86,28.79,10.62,8.78,17.71,18.32,21.29,28.64,3.58,10.32,5.35,26.48,5.35,48.54,0,4.08-.31,24.41-.92,60.94-.42,35.92-.62,56.97-.62,63.09,0,21.63,.77,38.07,2.31,49.31,1.54,11.24,4.43,21.94,8.74,32.14l-.04-.04Zm-91.23-147.59c-10.82,6.74-30.22,12.05-58.17,15.94-19.59,2.85-33.8,6.62-42.58,11.32-12.47,6.54-18.67,17.75-18.67,33.68,0,12.86,4.08,22.9,12.24,30.14,8.16,7.24,19.59,10.86,34.3,10.86,24.29,0,43.88-8.35,58.78-25.1,5.31-5.93,8.97-11.93,11.01-18.05,2.04-6.12,3.08-14.28,3.08-24.48v-34.3Z" style="fill: #e2e2e2;"/>
    <path d="M2594.64,191.28v417.98h-82.69V191.28h82.69Z" style="fill: #e2e2e2;"/>
    <path d="M2809.91,191.28h202.41c40.23,0,71.02,6.31,92.47,18.98,36.34,21.44,54.51,54.51,54.51,99.2,0,24.48-5.89,45.73-17.59,63.71-11.74,17.98-28.14,30.91-49.16,38.88,17.55,3.46,32.03,13.67,43.46,30.6,6.54,10.2,10.97,20.86,13.32,31.99,2.35,11.13,5.24,36.38,8.74,75.8,2.46,27.37,6.62,45.31,12.55,53.89l3.97,4.89h-95.24c-4.89-9.2-8.35-28.06-10.39-56.66-2.04-27.37-4.39-46.58-7.04-57.7-2.66-11.13-7.16-20.86-13.47-29.26-10.2-13.67-31.95-20.63-65.21-20.83h-82.07v164.45h-91.27V191.28h.04Zm91.27,71.95v114.83h86.96c28.37,0,48.27-3.96,59.71-11.93,14.47-10.2,21.75-25.41,21.75-45.62s-6.16-34.3-18.52-43.5c-12.36-9.2-31.99-13.78-58.94-13.78h-90.96Z" style="fill: #20ee66;"/>
    <path d="M3503.47,515.26c-4.27,16.94-12.16,32.95-23.56,48.08-27.56,36.15-66.94,54.2-118.18,54.2-46.73,0-84.11-14.17-112.06-42.58-28.79-29.18-43.19-67.79-43.19-115.75,0-44.08,13.05-81.15,39.19-111.17,29.18-33.49,66.94-50.24,113.29-50.24,37.15,0,68.91,11.13,95.24,33.38,18.98,15.94,32.8,35.72,41.5,59.4,8.66,23.67,12.9,53.16,12.7,88.5h-217.42c.62,15.09,2.96,27.75,7.04,37.96,11.24,27.14,32.57,40.73,63.98,40.73,29.18,0,49.81-14.2,61.86-42.58h79.61v.08Zm-79.61-89.12c-1.62-15.09-5.12-27.45-10.43-37.03-5.31-9.82-12.86-17.52-22.67-23.14-9.82-5.62-20.52-8.43-32.14-8.43-18.59,0-33.88,6.16-45.92,18.52-12.05,12.36-19.21,29.03-21.44,50.08h132.62Z" style="fill: #20ee66;"/>
    <path d="M3629.62,306.11v41.34c24.1-33.07,56.13-49.62,96.16-49.62s68.79,16.75,85.11,50.24c24.71-33.49,57.97-50.24,99.82-50.24,32.45,0,57.59,9.35,75.33,28.02,17.75,18.67,26.64,45.08,26.64,79.15v204.25h-82.69v-180.97c0-19.59-2.16-33.38-6.43-41.34-7.78-14.28-21.94-21.44-42.58-21.44-24.71,0-42.04,10.2-52.05,30.6-4.27,8.97-6.43,25.21-6.43,48.7v164.45h-82.69v-184.66c0-18.17-2.16-31.22-6.43-39.19-7.35-13.28-20.63-19.9-39.8-19.9-11.63,0-22.21,2.85-31.68,8.58-9.51,5.74-16.71,13.59-21.6,23.56-4.7,9.82-7.04,25.52-7.04,47.16v164.45h-82.69V306.11h79.03Z" style="fill: #20ee66;"/>
    <path d="M4213.59,297.84c45.31,0,82.38,14.59,111.17,43.81,28.37,28.99,42.58,67.56,42.58,115.75s-15.09,89.42-45.31,118.8c-28.37,27.56-65.44,41.34-111.17,41.34-48.58,0-87.27-15.32-116.06-45.92-27.37-29.41-41.04-67.37-41.04-113.91s13.36-83.61,40.11-111.75c29.99-32.07,69.91-48.08,119.72-48.08v-.04Zm-2.46,61.55c-23.29,0-41.38,8.66-54.36,26.02-12.97,17.36-19.44,41.65-19.44,72.87s6.54,55.43,19.59,71.95c13.28,17.13,31.34,25.71,54.2,25.71,21.44,0,38.57-7.74,51.43-23.29,14.09-17.13,21.13-42.27,21.13-75.33,0-30.6-6.31-54.39-18.98-71.33-12.67-17.13-30.53-26.02-53.59-26.64v.04Z" style="fill: #20ee66;"/>
    <path d="M4676.26,306.11l-102.9,303.15h-93.08l-104.71-303.15h87.27l64.59,216.19,65.83-216.19h83Z" style="fill: #20ee66;"/>
    <path d="M4981.26,515.26c-4.27,16.94-12.16,32.95-23.56,48.08-27.56,36.15-66.94,54.2-118.18,54.2-46.73,0-84.11-14.17-112.06-42.58-28.79-29.18-43.19-67.79-43.19-115.75,0-44.08,13.05-81.15,39.19-111.17,29.18-33.49,66.94-50.24,113.29-50.24,37.15,0,68.91,11.13,95.24,33.38,18.98,15.94,32.8,35.72,41.5,59.4,8.66,23.67,12.9,53.16,12.7,88.5h-217.42c.62,15.09,2.96,27.75,7.04,37.96,11.24,27.14,32.57,40.73,63.98,40.73,29.18,0,49.81-14.2,61.86-42.58h79.61v.08Zm-79.61-89.12c-1.62-15.09-5.12-27.45-10.43-37.03-5.31-9.82-12.86-17.52-22.67-23.14-9.82-5.62-20.52-8.43-32.14-8.43-18.59,0-33.88,6.16-45.92,18.52-12.05,12.36-19.21,29.03-21.44,50.08h132.62Z" style="fill: #20ee66;"/>
    <path d="M5224.09,300.92v76.87c-13.67-2.46-24.48-3.66-32.45-3.66-30.83,0-53.59,12.55-68.29,37.65-8.16,14.09-12.24,37.65-12.24,70.75v126.76h-82.69V306.11h78.99v56.05c21.44-41.65,54.09-62.48,97.97-62.48,4.89,0,11.13,.42,18.67,1.23h.04Z" style="fill: #20ee66;"/>
  </g>
  <path d="M666.97,.04H141.82C63.48,.04,0,63.52,0,141.85V667c0,78.34,63.48,141.82,141.82,141.82H666.97c78.34,0,141.82-63.48,141.82-141.82V141.82C808.78,63.48,745.3,0,666.97,0V.04ZM300.61,181.93c0-59.21,44.89-106.48,104.05-107.13,63.13-.65,106.02,48.5,106.9,103.09,.58,36.19,.12,72.41,.12,108.59v103.9c0,55.97-39.38,100.51-95.97,106.09-53.89,5.31-101.4-30.33-112.41-82.49-1.69-7.93-2.58-16.17-2.58-24.29-.19-69.25-.12-138.51-.12-207.76Zm315.2,271.35c-10.28,65.79-52.16,110.1-111.48,137.66-17.17,7.97-36.19,12.13-54.62,17.01-5.85,1.54-8.47,2.89-8.35,9.39,.38,21.94,.15,43.92,.15,66.63h116.41v46.85H254.22v-46.31h116.56c0-19.25,.08-37.65,0-56.05-.12-18.36-.35-17.9-17.63-22.1-67.25-16.36-118.53-53.32-148.4-117.02-9.66-20.63-15.59-42.54-15.9-65.48-.42-29.87-.12-59.78-.12-90.42h62.55c0,22.44,.04,44.92,0,67.37-.04,23.41,5.27,45.5,16.82,65.9,24.1,42.5,61.28,67.21,108.75,74.72,55.32,8.74,104.13-6.12,143.2-47.58,24.1-25.56,36.07-56.32,36.15-91.54v-69.14h61.9c.42,.54,1.12,1,1.12,1.5-.77,39.57,2.66,79.8-3.39,118.56l-.04,.04Z" style="fill: #20ee66;"/>
</svg>