<?xml version="1.0" encoding="UTF-8"?>
<svg id="Capa_1" data-name="Capa 1" xmlns="http://www.w3.org/2000/svg" width="3031.71" height="841.43" viewBox="0 0 3031.71 841.43">
  <rect width="841.43" height="841.43" style="fill: #235137;"/>
  <path d="M230.19,690.95L196.83,150.3h99.91l15.48,323.81,4.64,102.32h7.05l46.43-308.33h104.55l46.43,308.33h7.05l4.64-99.05,15.48-326.9h95.96l-33.36,540.65h-147.2l-39.55-298.18h-7.74l-39.55,298.18H230.19v-.17Z" style="fill: #fff;"/>
  <g>
    <path d="M1035.15,328.08h56.78l30.53,264.99h5.5l47.01-264.99h64.72l46.4,264.99h5.5l31.14-264.99h54.34l-43.96,315.06h-81.82l-42.13-244.23h-5.5l-42.74,244.23h-81.82l-43.96-315.06Z" style="fill: #e5e5e5;"/>
    <path d="M1538.26,650.46c-37.05,0-68.18-6.45-93.42-19.33-25.24-12.88-46-30.05-62.28-51.5l43.96-42.13c16.28,19.54,33.58,33.89,51.9,43.05,18.32,9.16,39.08,13.74,62.28,13.74,26.87,0,47.52-6.14,61.97-18.44,14.44-12.29,21.67-29.92,21.67-52.87,0-18.44-5.29-32.68-15.87-42.72-10.59-10.04-28.7-17.32-54.34-21.83l-46.4-7.33c-20.36-3.24-37.45-8.63-51.29-16.15-13.84-7.52-25.03-16.47-33.58-26.84-8.55-10.36-14.76-21.95-18.62-34.75-3.87-12.8-5.8-26.32-5.8-40.56,0-40.24,13.02-70.84,39.08-91.77,26.04-20.93,61.87-31.41,107.46-31.41,33.78,0,62.58,5.34,86.4,16.01,23.81,10.68,43.05,25.69,57.7,45.05l-42.74,42.74c-11.81-14.24-25.75-25.74-41.82-34.5-16.09-8.75-35.93-13.13-59.53-13.13-25.24,0-44.48,5.44-57.7,16.29-13.23,10.87-19.84,26.75-19.84,47.66,0,17.63,5.19,31.46,15.57,41.51s28.79,17.33,55.26,21.83l45.18,7.94c38.26,6.92,66.14,20.85,83.65,41.78,17.5,20.94,26.25,46.45,26.25,76.53,0,19.52-3.36,37.42-10.07,53.67-6.72,16.27-16.7,30.09-29.92,41.47-13.23,11.38-29.52,20.23-48.85,26.52-19.34,6.3-41.42,9.45-66.25,9.45Z" style="fill: #e5e5e5;"/>
    <path d="M1745.85,191.31h66.55v190.5h3.05c3.25-8.14,7.42-15.97,12.52-23.51,5.08-7.53,11.3-14.04,18.62-19.54,7.33-5.5,15.87-9.87,25.64-13.13,9.77-3.25,21.16-4.88,34.19-4.88,31.75,0,57.39,10.38,76.93,31.14s29.31,50.28,29.31,88.53v202.71h-66.55v-192.94c0-50.07-21.78-75.1-65.33-75.1-8.55,0-16.9,1.13-25.03,3.36-8.15,2.24-15.47,5.6-21.98,10.07-6.52,4.48-11.71,10.18-15.57,17.1-3.87,6.93-5.8,14.86-5.8,23.81v213.7h-66.55V191.31Z" style="fill: #e5e5e5;"/>
    <path d="M2330.78,643.13c-19.14,0-33.49-4.88-43.05-14.65-9.57-9.77-15.37-22.59-17.4-38.47h-3.05c-6.11,19.14-17.2,33.99-33.28,44.57-16.08,10.58-36.54,15.87-61.36,15.87-32.16,0-57.8-8.44-76.93-25.34-19.14-16.89-28.7-40.19-28.7-69.91s11.3-53.83,33.89-69.91c22.59-16.08,57.29-24.12,104.1-24.12h60.45v-24.42c0-42.74-22.59-64.11-67.77-64.11-20.36,0-36.84,3.97-49.46,11.91-12.62,7.94-23.2,18.42-31.75,31.44l-39.69-32.36c8.95-17.1,24.01-31.85,45.18-44.27,21.16-12.41,48.44-18.62,81.82-18.62,39.89,0,71.23,9.57,94.03,28.7,22.79,19.14,34.19,46.81,34.19,83.04v158.14h39.69v52.51h-40.91Zm-139.21-41.52c21.57,0,39.28-4.85,53.12-14.56,13.83-9.71,20.76-22.25,20.76-37.63v-45.51h-59.23c-48.04,0-72.05,14.37-72.05,43.08v12.14c0,14.16,5.08,24.78,15.26,31.85,10.17,7.08,24.21,10.62,42.13,10.62Z" style="fill: #e5e5e5;"/>
    <path d="M2412.59,588.79h83.65v-206.37h-83.65v-54.34h150.2v83.65h3.66c2.84-10.99,6.92-21.57,12.21-31.75,5.29-10.17,12-19.02,20.15-26.56,8.14-7.53,18.11-13.63,29.92-18.32,11.8-4.67,25.64-7.02,41.52-7.02h37.86v63.5h-62.28c-24.42,0-44.37,7.2-59.84,21.61-15.47,14.41-23.2,33.78-23.2,58.13v117.48h114.18v54.34h-264.38v-54.34Z" style="fill: #e5e5e5;"/>
    <path d="M2891.89,650.46c-24.02,0-45.59-3.87-64.72-11.6-19.14-7.73-35.21-18.72-48.24-32.97-13.03-14.24-23-31.45-29.92-51.59-6.93-20.15-10.38-42.84-10.38-68.08s3.56-48.03,10.68-68.38c7.12-20.35,17.1-37.75,29.92-52.2,12.82-14.44,28.39-25.54,46.71-33.28,18.32-7.73,38.67-11.6,61.06-11.6s41.92,3.77,59.84,11.3c17.91,7.54,33.17,18.22,45.79,32.06,12.61,13.84,22.29,30.33,29,49.46,6.72,19.14,10.07,40.3,10.07,63.5v25.03h-225.91v10.31c0,24.67,7.73,44.79,23.2,60.36,15.46,15.57,36.84,23.35,64.11,23.35,20.35,0,37.75-4.34,52.2-13.04,14.44-8.69,26.15-20.32,35.11-34.88l41.52,36.74c-10.59,18.37-26.77,33.89-48.54,46.54-21.78,12.65-48.95,18.99-81.51,18.99Zm-4.89-279.03c-11.81,0-22.7,2.04-32.67,6.11-9.98,4.07-18.53,9.87-25.64,17.4-7.13,7.54-12.73,16.39-16.79,26.56-4.07,10.18-6.11,21.37-6.11,33.58v4.27h158.14v-6.11c0-24.82-7.02-44.67-21.07-59.53-14.04-14.85-32.67-22.29-55.87-22.29Z" style="fill: #e5e5e5;"/>
  </g>
</svg>